<svg width="104" height="97" viewBox="0 0 104 97" fill="none" xmlns="http://www.w3.org/2000/svg">
<path d="M72.8313 50.0006C83.4667 50.0006 92.0883 41.296 92.0883 30.5584C92.0883 19.8207 83.4667 11.1161 72.8313 11.1161C62.1959 11.1161 53.5742 19.8207 53.5742 30.5584C53.5742 41.296 62.1959 50.0006 72.8313 50.0006Z" fill="#00C8FF"/>
<path d="M72.8313 61.0748C89.4979 61.0748 103.057 47.3852 103.057 30.5586C103.057 13.7317 89.4979 0.0421219 72.8313 0.0421219C56.1647 0.0421219 42.6055 13.7317 42.6055 30.5586C42.6055 47.3852 56.1647 61.0748 72.8313 61.0748ZM72.8313 4.14368C87.2576 4.14368 98.9946 15.9933 98.9946 30.5586C98.9946 45.1236 87.2578 56.9732 72.8313 56.9732C58.4049 56.9732 46.668 45.1236 46.668 30.5586C46.668 15.9933 58.4047 4.14368 72.8313 4.14368Z" fill="black"/>
<path d="M69.42 35.6797C68.7161 34.7976 67.4377 34.6588 66.5638 35.3692C65.6902 36.0798 65.5527 37.3707 66.2563 38.2528C67.3761 39.6561 68.9814 40.4535 70.5804 40.8355C70.6655 41.889 71.5394 42.7171 72.6048 42.7171C73.6198 42.7171 74.4609 41.9655 74.6118 40.9834C77.4727 40.4678 79.4801 38.5448 79.8094 35.9268C80.1921 32.8857 78.2382 29.9693 75.0581 28.8343C74.9133 28.7827 74.7727 28.7322 74.636 28.6828V24.7318C74.8052 24.8407 74.9314 24.9596 75.0114 25.0744C75.6553 26.0016 76.9222 26.2262 77.8409 25.5752C78.7592 24.9247 78.9813 23.6457 78.3367 22.7185C77.598 21.6552 76.3077 20.753 74.6348 20.3814C74.5986 19.2808 73.7037 18.3998 72.6048 18.3998C71.4829 18.3998 70.5735 19.3179 70.5735 20.4505V20.5192C70.4488 20.5523 70.3233 20.5877 70.1969 20.6263C68.0645 21.275 66.4554 23.36 66.2837 25.6971C66.1131 28.0196 67.3306 30.0341 69.5404 31.0861C69.7813 31.2009 70.1333 31.3511 70.5733 31.528V36.5274C70.1075 36.3158 69.7029 36.0342 69.42 35.6797ZM75.7792 35.41C75.7036 36.0106 75.3008 36.4694 74.636 36.7413V33.1789C75.5283 33.8118 75.8676 34.7086 75.7792 35.41ZM70.3354 26.0004C70.3547 25.7358 70.4417 25.4737 70.5737 25.2449V26.8486C70.3899 26.608 70.3113 26.3267 70.3354 26.0004Z" fill="white"/>
<path d="M103.992 69.7967C103.885 67.3073 102.741 65.1667 100.772 63.7695C97.5268 61.4667 93.1466 61.8666 90.3563 64.72C90.2669 64.8115 90.1861 64.9112 90.1152 65.018L85.659 71.721C84.4114 68.748 81.5128 66.6595 78.1452 66.6595L46.0856 66.6377H46.0842C45.5979 66.6377 45.1281 66.8137 44.7596 67.1338L36.728 74.1099H30.8669V72.3075C30.8669 71.1749 29.9573 70.2567 28.8356 70.2567H19.892V69.9762C19.892 68.8435 18.9824 67.9254 17.8608 67.9254H2.03125C0.909391 67.9254 0 68.8435 0 69.9762V94.0273C0 95.16 0.909391 96.0781 2.03125 96.0781H17.8608C18.9824 96.0781 19.892 95.16 19.892 94.0273V93.7468H28.8354C29.9571 93.7468 30.8667 92.8286 30.8667 91.696V89.8023H37.6017L43.6861 96.3142C44.0702 96.7251 44.6048 96.9577 45.1636 96.9577C45.1732 96.9577 45.1827 96.9577 45.1923 96.9575L87.1404 96.3634C87.7949 96.3541 88.4049 96.0271 88.7788 95.4848L102.107 76.1615C102.115 76.1494 102.124 76.1371 102.132 76.125C103.422 74.1655 104.083 71.9181 103.992 69.7967ZM15.8295 91.9766H4.0625V72.027H15.8295V91.9766ZM26.8042 89.6454H19.892V74.3583H26.8042V89.6454ZM98.7604 73.8364L86.0409 92.2772L46.0285 92.8438L39.9559 86.3445C39.572 85.9337 39.0376 85.701 38.4784 85.701H30.8669V78.2115H37.4816C37.9679 78.2115 38.4378 78.0355 38.8062 77.7154L46.8372 70.7399L78.1438 70.7612C80.4081 70.7612 82.2502 72.6553 82.2502 74.9836C82.2502 77.3116 80.4082 79.2055 78.1438 79.2055C78.1385 79.2055 78.1332 79.2057 78.128 79.2057H60.6105C60.0531 79.2057 59.5201 79.437 59.1364 79.8456L54.863 84.3962C54.0912 85.2182 54.1255 86.5161 54.9396 87.2954C55.3325 87.6714 55.835 87.858 56.3367 87.858C56.8748 87.858 57.4119 87.6435 57.8112 87.2181L61.4837 83.3073L81.7651 83.3081H81.7657C82.4426 83.3081 83.0751 82.9677 83.4523 82.4002L93.3713 67.4806C94.7653 66.1689 96.8681 66.0122 98.4362 67.1254C100.553 68.6272 100.202 71.6342 98.7604 73.8364Z" fill="black"/>
</svg>
