<svg width="104" height="82" viewBox="0 0 104 82" fill="none" xmlns="http://www.w3.org/2000/svg">
<path d="M73.8313 43.6077H96.5312V64.8331H73.8313V43.6077Z" fill="#00C8FF"/>
<path d="M7.79743 43.6077H30.4974V64.8331H7.79743V43.6077Z" fill="#00C8FF"/>
<path d="M41.5493 43.6077H62.7793V78.3419H41.5493V43.6077Z" fill="#00C8FF"/>
<path d="M95.8333 0.349976H8.49535C4.30542 0.349976 0.896729 3.75887 0.896729 7.9486V22.5697C0.896729 26.2557 2.85952 29.4918 5.79479 31.288V79.0041C5.79479 80.1102 6.69137 81.0067 7.79743 81.0067H96.5312C97.6373 81.0067 98.5339 80.1102 98.5339 79.0041V31.288C101.469 29.4918 103.432 26.2557 103.432 22.5697V7.9486C103.432 3.75887 100.023 0.349976 95.8333 0.349976ZM83.005 22.5697C83.005 25.9928 80.2201 28.7777 76.7968 28.7777C73.3735 28.7777 70.5886 25.9928 70.5886 22.5697V4.35526H83.005V22.5697ZM66.5833 22.5697C66.5833 25.9928 63.7985 28.7777 60.3752 28.7777C56.9518 28.7777 54.167 25.9928 54.167 22.5697V4.35526H66.5833V22.5697ZM50.1617 22.5697C50.1617 25.9928 47.3768 28.7777 43.9535 28.7777C40.5302 28.7777 37.7453 25.9928 37.7453 22.5697V4.35526H50.1617V22.5697ZM33.74 22.5697C33.74 25.9928 30.9552 28.7777 27.5319 28.7777C24.1085 28.7777 21.3237 25.9928 21.3237 22.5697V4.35526H33.74V22.5697ZM4.90201 7.9486C4.90201 5.96718 6.51414 4.35526 8.49535 4.35526H17.3184V22.5697C17.3184 25.9928 14.5335 28.7777 11.1102 28.7777C7.68688 28.7777 4.90201 25.9928 4.90201 22.5697V7.9486ZM94.5286 77.0015H9.80007V32.6994C10.229 32.7545 10.6664 32.7831 11.1102 32.7831C14.4714 32.7831 17.4588 31.151 19.321 28.6377C21.1833 31.151 24.1706 32.7831 27.5319 32.7831C30.8931 32.7831 33.8804 31.151 35.7427 28.6377C37.6049 31.151 40.5923 32.7831 43.9535 32.7831C47.3147 32.7831 50.3021 31.151 52.1643 28.6377C54.0266 31.151 57.0139 32.7831 60.3752 32.7831C63.7364 32.7831 66.7237 31.151 68.586 28.6377C70.4482 31.151 73.4356 32.7831 76.7968 32.7831C80.1581 32.7831 83.1454 31.151 85.0076 28.6377C86.8699 31.151 89.8572 32.7831 93.2185 32.7831C93.6623 32.7831 94.0996 32.7547 94.5286 32.6994V77.0015ZM99.4267 22.5697C99.4267 25.9928 96.6418 28.7777 93.2185 28.7777C89.7952 28.7777 87.0103 25.9928 87.0103 22.5697V4.35526H95.8333C97.8147 4.35526 99.4267 5.96718 99.4267 7.9486V22.5697Z" fill="black"/>
</svg>
