<svg width="104" height="72" viewBox="0 0 104 72" fill="none" xmlns="http://www.w3.org/2000/svg">
<path d="M103.987 6.50758C103.985 3.10361 101.215 0.333186 97.8102 0.331764L15.7284 0.323639H15.7255C14.077 0.323639 12.5271 0.965514 11.3616 2.13105C10.1954 3.29719 9.55357 4.84784 9.55418 6.49742L9.5552 10.032L6.17418 10.0316H6.17134C4.52278 10.0316 2.97273 10.6735 1.8074 11.839C0.641262 13.0055 -0.000612756 14.5562 -3.38121e-06 16.2058L0.0134029 65.4924C0.0146216 68.8964 2.78504 71.6668 6.18982 71.6682L88.2716 71.6762H88.2745C89.923 71.6762 91.4729 71.0343 92.6384 69.8688C93.8045 68.7026 94.4464 67.152 94.4458 65.5024L94.4448 61.9678L97.8258 61.968H97.8287C99.4772 61.968 101.027 61.3261 102.193 60.1606C103.359 58.9945 104.001 57.4438 104 55.7942L103.987 6.50758ZM89.7656 66.9962C89.3673 67.3945 88.8377 67.6137 88.2743 67.6137C88.2737 67.6135 88.273 67.6135 88.2726 67.6137L6.19084 67.6057C5.02511 67.6051 4.07631 66.6565 4.0759 65.491L4.0625 16.2044C4.06229 15.6405 4.28167 15.1103 4.68 14.7118C5.07832 14.3135 5.60787 14.0943 6.17215 14.0943H6.17317L88.2548 14.1022C89.4205 14.1028 90.3693 15.0516 90.3697 16.2169L90.3831 65.5036C90.3833 66.0675 90.1641 66.5976 89.7656 66.9962ZM99.32 57.288C98.9217 57.6863 98.3921 57.9055 97.8278 57.9055H97.8268L94.4436 57.9053L94.4322 16.2157C94.431 12.8118 91.6604 10.0411 88.2558 10.0399L13.6177 10.0326L13.6167 6.4962C13.6165 5.93233 13.8359 5.40217 14.2342 5.00364C14.6325 4.60531 15.1621 4.38614 15.7263 4.38614H15.7272L97.8089 4.39406C98.9747 4.39467 99.9235 5.34326 99.9239 6.5088L99.9375 55.7954C99.9377 56.3593 99.7183 56.8895 99.32 57.288Z" fill="black"/>
<path d="M78.2518 60.5467C78.2508 57.7487 80.5181 55.4814 83.3159 55.4826L83.3104 26.2304C80.5124 26.2294 78.2432 23.9603 78.2422 21.1623H16.1941C16.1951 23.9603 13.9278 26.2276 11.13 26.2264L11.1354 55.4786C13.9335 55.4796 16.2026 57.7487 16.2036 60.5467H78.2518Z" fill="#00C8FF"/>
<path d="M72.2577 38.9496H65.6194C64.4975 38.9496 63.5881 39.8592 63.5881 40.9808C63.5881 42.1025 64.4975 43.0121 65.6194 43.0121H72.2577C73.3796 43.0121 74.289 42.1025 74.289 40.9808C74.289 39.859 73.3796 38.9496 72.2577 38.9496Z" fill="white"/>
<path d="M29.1089 38.9496H22.4706C21.3487 38.9496 20.4393 39.8592 20.4393 40.9808C20.4393 42.1025 21.3487 43.0121 22.4706 43.0121H29.1089C30.2308 43.0121 31.1402 42.1025 31.1402 40.9808C31.1402 39.859 30.2308 38.9496 29.1089 38.9496Z" fill="white"/>
</svg>
