<svg width="100" height="103" viewBox="0 0 100 103" fill="none" xmlns="http://www.w3.org/2000/svg">
<path d="M62.7912 95.3056H17.2303V26.7631H27.9V37.1243C27.9 38.2353 28.7919 39.136 29.8922 39.136C30.9923 39.136 31.8844 38.2353 31.8844 37.1243V26.7631H59.2063V37.1243C59.2063 38.2353 60.0984 39.136 61.1985 39.136C62.2985 39.136 63.1906 38.2353 63.1906 37.1243V26.7631H73.5273V48.0779H77.5117V24.7514C77.5117 23.6403 76.6196 22.7397 75.5195 22.7397H63.1906V17.7287C63.1906 7.95313 55.2751 0 45.5454 0C43.3154 0 41.1806 0.417834 39.2145 1.17967C37.2484 0.417834 35.1135 0 32.8835 0C23.1537 0 15.2381 7.95313 15.2381 17.7287V22.7395H2.90924C1.80915 22.7395 0.917053 23.6401 0.917053 24.7512V89.7613C0.917053 95.0368 5.17416 99.3288 10.4068 99.3288H68.8044C66.8365 98.2564 64.7517 96.925 62.7912 95.3056ZM45.5454 4.02344C53.0781 4.02344 59.2063 10.1717 59.2063 17.7287V22.7395H50.5287V17.7287C50.5287 12.2528 48.045 7.34901 44.1501 4.09425C44.6089 4.04758 45.0745 4.02344 45.5454 4.02344ZM39.2145 5.58614C43.5682 7.8801 46.5445 12.4624 46.5445 17.7289V22.7397H31.8844V17.7287C31.8844 12.4622 34.8607 7.8801 39.2145 5.58614ZM19.2225 17.7287C19.2225 10.1717 25.3508 4.02344 32.8835 4.02344C33.3544 4.02344 33.8198 4.04738 34.2786 4.09445C30.3837 7.34901 27.8998 12.253 27.8998 17.7289V22.7397H19.2223V17.7287H19.2225ZM13.2459 95.3056H10.4068C7.37114 95.3056 4.90143 92.8185 4.90143 89.7615V26.7631H13.2459V95.3056Z" fill="black"/>
<path d="M92.7992 54.7374C86.7766 54.7374 81.582 51.191 79.165 46.0659H72.082C69.6651 51.1908 64.4705 54.7374 58.4479 54.7374C56.2051 54.7374 54.0772 54.2452 52.1641 53.3634V78.4196C52.1641 96.7462 75.6235 103 75.6235 103C75.6235 103 99.0829 96.7462 99.0829 78.4196V53.3634C97.1698 54.2452 95.0418 54.7374 92.7992 54.7374Z" fill="#00C8FF"/>
<path d="M74.8532 81.6053C74.328 81.6053 73.8228 81.3957 73.4487 81.0201L69.1193 76.673C68.3389 75.8894 68.3353 74.6158 69.1113 73.828C69.8868 73.04 71.1483 73.0364 71.9286 73.82L74.7249 76.6275L81.99 67.9301C82.6996 67.0807 83.9563 66.9733 84.7972 67.6895C85.6383 68.4058 85.7451 69.675 85.0354 70.5244L76.3762 80.891C76.0172 81.3207 75.4968 81.579 74.9406 81.6035C74.9113 81.6047 74.8825 81.6053 74.8532 81.6053Z" fill="white"/>
</svg>
